<svg id="Capa_1" data-name="Capa 1" xmlns="http://www.w3.org/2000/svg" viewBox="0 0 40 29.33"><defs><style>.cls-1{fill:#fff;}</style></defs><title>download</title><path class="cls-1" d="M38.26,16.36a7.88,7.88,0,0,0-4.45-2.82,5.09,5.09,0,0,0,.86-2.87A5.13,5.13,0,0,0,33.1,6.9a5.28,5.28,0,0,0-7.23-.27A10.35,10.35,0,0,0,22,1.81,10.43,10.43,0,0,0,16,0,10.25,10.25,0,0,0,8.46,3.13a10.24,10.24,0,0,0-3.13,7.54c0,.18,0,.48,0,.89A9.34,9.34,0,0,0,0,20a9,9,0,0,0,2.74,6.59,9,9,0,0,0,6.59,2.74H32a8,8,0,0,0,8-8A7.76,7.76,0,0,0,38.26,16.36Zm-11.8.81-7.31,7.31a.69.69,0,0,1-.48.19.66.66,0,0,1-.48-.19l-7.34-7.33a.68.68,0,0,1-.18-.48.64.64,0,0,1,.19-.47.67.67,0,0,1,.47-.2H16V8.67A.68.68,0,0,1,16.67,8h4a.67.67,0,0,1,.47.2.64.64,0,0,1,.19.47V16H26a.65.65,0,0,1,.48.19.66.66,0,0,1,.19.48A.8.8,0,0,1,26.46,17.17Z"/></svg>